trial_2_IK.mot
nRows=5
nColumns=42

name trial_2_IK.mot
datacolumns 42
datarows 5
range 3.6100000000 3.6500000000
endheader
time	pelvis_tilt	pelvis_list	pelvis_rotation	pelvis_tx	pelvis_ty	pelvis_tz	hip_flexion_r	hip_adduction_r	hip_rotation_r	knee_angle_r	knee_vv_r	knee_rot_r	ankle_angle_r	subtalar_angle_r	mtp_angle_r	hip_flexion_l	hip_adduction_l	hip_rotation_l	knee_angle_l	knee_vv_l	knee_rot_l	ankle_angle_l	subtalar_angle_l	mtp_angle_l	lumbar_extension	lumbar_bending	lumbar_rotation	arm_flex_r	arm_add_r	arm_rot_r	elbow_flex_r	pro_sup_r	wrist_flex_r	wrist_dev_r	arm_flex_l	arm_add_l	arm_rot_l	elbow_flex_l	pro_sup_l	wrist_flex_l	wrist_dev_l
        3.6100000000	        9.0309335900	       -0.4087801600	       -3.1017439900	        0.0715652200	        0.8933109800	        0.0117219800	      -23.5361979200	        2.0904137400	        3.6018951400	       -7.1042271200	        0.0000000000	        0.0000000000	       15.4382178100	        0.0000000000	        0.0000000000	       12.5946742400	        1.0578909400	       -4.6427459300	       -5.9030427700	        0.0000000000	        0.0000000000	       -5.5211320400	        0.0000000000	        0.0000000000	      -24.7385828100	       -2.4065947600	        7.5478921400	       25.9059108100	      -22.1338522700	       27.0798405700	       28.1718847400	       86.5166270600	        0.0000000000	        0.0000000000	        0.6485585600	       -9.9321277400	       43.0826195600	        2.8275106500	       85.9436692700	        0.0000000000	        0.0000000000	
        3.6200000000	        9.3315303400	       -0.0927608800	       -3.0064002400	        0.0734861800	        0.8929332900	        0.0099600600	      -24.3121024400	        1.6140659000	        3.1656892300	       -7.5548276100	        0.0000000000	        0.0000000000	       15.0789747500	        0.0000000000	        0.0000000000	       12.3546763300	        1.5875784800	       -4.8533606700	       -6.7876327300	        0.0000000000	        0.0000000000	       -6.2915995000	        0.0000000000	        0.0000000000	      -24.9738267600	       -2.6708871000	        7.1717575500	       25.2624500100	      -21.7369598400	       27.0712964000	       27.5808072500	       86.5166270600	        0.0000000000	        0.0000000000	        1.1632504800	      -10.0194766500	       43.5863827800	        2.8064113600	       85.9436692700	        0.0000000000	        0.0000000000	
        3.6300000000	        9.6517675800	        0.3161342800	       -2.9315217400	        0.0753276000	        0.8929762700	        0.0082090100	      -25.0073364800	        1.0442861900	        2.6966789600	       -8.1649813300	        0.0000000000	        0.0000000000	       14.6181116900	        0.0000000000	        0.0000000000	       12.0063500200	        2.1824746600	       -5.0615134300	       -7.4744887200	        0.0000000000	        0.0000000000	       -7.1054918200	        0.0000000000	        0.0000000000	      -25.2578640500	       -3.0453017700	        6.7707476900	       24.5909973000	      -21.2897820600	       27.1023557500	       26.8984582200	       86.5166270600	        0.0000000000	        0.0000000000	        1.7350986200	      -10.1303559400	       44.0943773600	        2.8114210700	       85.9436692700	        0.0000000000	        0.0000000000	
        3.6400000000	        9.9684264800	        0.7933932900	       -2.8851056100	        0.0770865200	        0.8934284300	        0.0065257200	      -25.5777309700	        0.4058848400	        2.2062104000	       -8.9838625800	        0.0000000000	        0.0000000000	       14.0502388300	        0.0000000000	        0.0000000000	       11.5445168900	        2.8154851000	       -5.2632954400	       -8.0938672100	        0.0000000000	        0.0000000000	       -7.8369271700	        0.0000000000	        0.0000000000	      -25.5674888800	       -3.5039865200	        6.3659479100	       23.8843922100	      -20.7987538700	       27.1939894200	       26.1249280500	       86.5166270600	        0.0000000000	        0.0000000000	        2.3573134400	      -10.2597923100	       44.6146994200	        2.8341232500	       85.9436692700	        0.0000000000	        0.0000000000	
        3.6500000000	       10.2757060300	        1.3034543700	       -2.8687253400	        0.0789162300	        0.8942626700	        0.0048977600	      -25.9908808100	       -0.2680472900	        1.6915625800	      -10.0586766100	        0.0000000000	        0.0000000000	       13.3564800300	        0.0000000000	        0.0000000000	       11.0099453900	        3.4474735500	       -5.4551794400	       -8.7626620000	        0.0000000000	        0.0000000000	       -8.3742920300	        0.0000000000	        0.0000000000	      -25.8645408300	       -4.0012533700	        5.9775433700	       23.1300797800	      -20.2759919100	       27.3758822600	       25.2604197200	       86.5166270600	        0.0000000000	        0.0000000000	        3.0126341800	      -10.4010034200	       45.1450145700	        2.8646654700	       85.9436692700	        0.0000000000	        0.0000000000	
